<?xml version="1.0" encoding="UTF-8"?>
<svg width="253px" height="459px" viewBox="0 0 253 459" version="1.1" xmlns="http://www.w3.org/2000/svg" xmlns:xlink="http://www.w3.org/1999/xlink">
    <!-- Generator: Sketch 57.1 (83088) - https://sketch.com -->
    <title>Rectangle 2</title>
    <desc>Created with Sketch.</desc>
    <g id="Page-1" stroke="none" stroke-width="1" fill="none" fill-rule="evenodd">
        <path d="M253,0 L253,440.505619 L209.527392,440.505619 L209.527392,459 L44.6212213,459 L44.6212213,440.505619 L0,440.505619 L0,0 L253,0 Z M222,279 L32,279 L32,363 L222,363 L222,279 Z M59.9569799,282.531161 L133.253004,309.208732 L118.546138,349.615515 L45.2501138,322.937943 L59.9569799,282.531161 Z M86,210 L32,210 L32,256 L86,256 L86,210 Z M154,210 L100,210 L100,256 L154,256 L154,210 Z M222,210 L168,210 L168,256 L222,256 L222,210 Z M86,148 L32,148 L32,194 L86,194 L86,148 Z M154,148 L100,148 L100,194 L154,194 L154,148 Z M222,148 L168,148 L168,194 L222,194 L222,148 Z M86,86 L32,86 L32,132 L86,132 L86,86 Z M154,86 L100,86 L100,132 L154,132 L154,86 Z M222,86 L168,86 L168,132 L222,132 L222,86 Z M86,24 L32,24 L32,70 L86,70 L86,24 Z M154,24 L100,24 L100,70 L154,70 L154,24 Z M222,24 L168,24 L168,70 L222,70 L222,24 Z" id="Rectangle-2" fill="#FFFFFF"></path>
    </g>
</svg>